<svg width="132" height="127" viewBox="0 0 132 127" fill="none" xmlns="http://www.w3.org/2000/svg">
<path d="M125.67 61.1242C125.678 69.5207 123.866 77.826 120.349 85.508C116.833 93.19 111.69 100.079 105.251 105.734C103.459 107.308 101.576 108.783 99.6104 110.15C97.0875 111.905 94.4315 113.474 91.6649 114.846H91.6359C91.0462 115.144 90.4469 115.428 89.8428 115.703C89.5673 115.833 89.2967 115.955 89.0163 116.076C87.2668 116.849 85.4721 117.543 83.6323 118.158C82.1824 118.624 80.6938 119.09 79.1907 119.472C70.5204 121.695 61.4574 122.106 52.6088 120.678C51.56 120.511 50.5257 120.32 49.4963 120.101L48.6263 119.91C46.0002 119.318 43.4171 118.562 40.8934 117.646C39.4273 117.115 37.9903 116.532 36.5823 115.899C36.0361 115.652 35.49 115.4 34.9535 115.139C34.5862 114.962 34.2237 114.781 33.8612 114.599C24.0273 109.621 15.7426 102.213 9.8556 93.1345C3.96854 84.0557 0.690642 73.6318 0.357539 62.9303C0.0244356 52.2289 2.64811 41.6343 7.95989 32.2316C13.2717 22.8289 21.0807 14.9558 30.5873 9.41863C40.0939 3.88145 50.9566 0.879105 62.0629 0.719034C73.1692 0.558963 84.1201 3.24692 93.7942 8.50766C103.468 13.7684 111.518 21.4129 117.119 30.6583C122.72 39.9038 125.671 50.418 125.67 61.1242Z" fill="url(#paint0_linear)"/>
<path d="M79.4226 65.4939C83.4147 69.4536 95.0431 84.8639 95.0431 84.8639L87.8998 94.9588L81.4767 74.904L79.4226 65.4939Z" fill="url(#paint1_linear)"/>
<path d="M91.6359 114.878C91.0462 115.177 90.4469 115.461 89.8428 115.736C89.5673 115.866 89.2967 115.987 89.0163 116.108C87.2668 116.882 85.4721 117.576 83.6323 118.191C82.1824 118.656 80.6938 119.122 79.1907 119.504C70.5204 121.727 61.4574 122.139 52.6088 120.711C51.56 120.543 50.5257 120.352 49.4963 120.133C45.7265 122.639 42.2466 124.759 39.9413 125.723L40.1298 124.172L40.9127 117.683L42.7251 102.585L49.9071 95.8904L33.7598 97.0969C33.7598 97.0969 35.4562 74.4101 42.0775 69.7423C48.6988 65.0745 55.6439 60.8912 55.6439 60.8912C56.4725 61.4179 57.3852 61.8097 58.3456 62.0512C60.6422 62.6631 63.0293 62.8977 65.4067 62.7453C68.2389 62.6195 71.0711 60.0806 71.2064 59.9502C71.2064 59.9502 75.6529 60.8027 79.4227 65.5124C81.3028 67.9369 82.6528 70.704 83.3906 73.6461C84.3186 77.0888 85.9667 85.1293 87.8419 94.8422C89.0695 101.094 90.3599 108.026 91.6359 114.878Z" fill="url(#paint2_linear)"/>
<path d="M95.0433 84.8824L101.935 92.6668L126.173 69.4769L127.091 64.7299L131.925 60.6816L129.774 66.8541V74.8947C129.774 74.8947 111.079 104.103 105.927 105.608C99.9006 107.374 87.9097 94.9494 87.9097 94.9494L95.0433 84.8824Z" fill="url(#paint3_linear)"/>
<path d="M69.8823 95.5271L75.5032 108.571L82.7673 105.561L77.4413 92.7972L69.8823 95.5271Z" fill="#7E57C2"/>
<path d="M77.7119 103.954C76.8081 104.672 75.4597 104.504 73.7874 104.588C71.5408 104.645 69.3859 105.459 67.6977 106.889C65.4503 108.711 59.1673 113.476 52.8843 117.827C51.7437 118.614 50.6031 119.392 49.5012 120.156C45.7314 122.663 42.2516 124.782 39.9462 125.747C39.3401 126.037 38.6856 126.221 38.013 126.292C34.7845 126.371 34.0933 119.849 33.8952 114.645C33.8324 112.917 33.8179 111.338 33.784 110.197C33.6487 105.631 33.784 97.1529 33.784 97.1529L49.9313 95.9417L48.2204 106.721L47.9208 108.627V108.641L52.7539 106.917L52.9037 106.866L70.0611 100.721L71.2452 98.7507L71.9992 100.614H72.0717L79.4179 99.6824C79.4179 99.6824 79.5436 102.505 77.7119 103.954Z" fill="url(#paint4_linear)"/>
<path d="M74.0048 35.9684C73.5843 34.8597 73.2219 34.105 73.1155 33.8814V33.8255C73.1155 33.8255 72.7434 34.7107 69.9402 34.4964C67.137 34.2821 66.2091 32.9404 66.2091 32.9404C66.2091 32.9404 67.0887 35.8473 63.749 37.0911C60.535 38.293 59.2688 37.5151 59.1818 37.4592C59.3509 37.6362 61.8641 40.2263 60.1967 42.2807C58.4713 44.4096 54.5903 43.9903 54.5903 43.9903V44.0183C55.0787 45.0844 55.6257 46.1247 56.2288 47.1348C56.5477 47.6659 56.8619 48.155 57.1954 48.6116V48.6442C58.0513 49.9863 59.2071 51.1274 60.5785 51.9843C59.9757 55.3934 58.2446 58.5229 55.644 60.9053C56.5188 61.3453 57.4211 61.7327 58.3456 62.0653C60.1484 62.7221 62.5698 63.3743 64.7301 63.1926C67.2334 62.9346 69.5465 61.785 71.2161 59.9689L70.1094 55.8741L69.1137 52.1846C78.1129 49.9718 75.6384 40.3474 74.0048 35.9684ZM68.6111 52.3197L68.7706 52.2824L69.0267 52.2126C68.654 52.368 68.2602 52.4715 67.8571 52.52C68.065 52.4688 68.2776 52.4129 68.4999 52.3476L68.6111 52.3197Z" fill="url(#paint5_linear)"/>
<path d="M79.4226 33.7044C75.7108 36.9933 74.1062 36.0662 74.0047 35.9777V35.9684C73.5842 34.8597 73.2217 34.105 73.1202 33.8814L73.0961 33.8255C73.0961 33.8255 72.7191 34.7106 69.9159 34.4963C67.1127 34.282 66.1896 32.9404 66.1896 32.9404C66.1896 32.9404 67.0692 35.8473 63.7296 37.0911C60.5107 38.293 59.2445 37.515 59.1623 37.4591C59.3315 37.6315 61.8447 40.2216 60.1772 42.276C58.4518 44.4049 54.5709 43.9903 54.5709 43.9903V44.0136C55.0591 45.0813 55.606 46.1232 56.2093 47.1348C56.5315 47.6627 56.8537 48.155 57.1759 48.6115V48.6441C57.1759 48.6441 55.8516 51.1551 53.4883 51.1038C51.1249 51.0526 51.0717 48.7746 51.0717 48.7746C51.0717 48.7746 49.3995 51.6815 44.2329 48.8817C39.0664 46.082 42.5123 42.0244 42.5123 42.0244C42.5123 42.0244 38.8489 39.3225 38.8489 35.2743C38.8489 31.2261 44.5519 28.1468 44.5519 28.1468C44.5519 28.1468 42.5123 23.4464 45.9535 20.8563C49.3946 18.2662 54.566 20.0224 54.566 20.0224C54.566 20.0224 54.4646 14.0083 59.7326 14.1062C65.0007 14.204 66.1944 17.3112 66.1944 17.3112C66.1944 17.3112 70.9308 13.7801 75.6189 17.1062C80.307 20.4324 78.3786 26.2322 78.3786 26.2322C78.3786 26.2322 83.2939 30.2804 79.4226 33.7044Z" fill="url(#paint6_linear)"/>
<path opacity="0.15" d="M70.1481 55.8601C67.9008 55.1753 63.9038 52.5619 63.9038 52.5619C65.4812 52.7225 67.075 52.6408 68.6257 52.3196L68.7852 52.2824L69.0945 52.1938H69.138L70.1481 55.8601Z" fill="black"/>
<path opacity="0.15" d="M52.0867 81.9569L49.907 95.9323L48.1961 106.712L44.2136 109.903L52.8793 106.87C52.8793 106.87 50.6319 100.684 52.0867 81.9569Z" fill="black"/>
<path opacity="0.15" d="M49.4866 120.133C50.516 120.352 51.5503 120.543 52.5991 120.711C52.6522 119.756 52.7489 118.791 52.8842 117.827L49.4866 120.133Z" fill="black"/>
<defs>
<linearGradient id="paint0_linear" x1="63.2571" y1="7.2717" x2="61.2657" y2="126.33" gradientUnits="userSpaceOnUse">
<stop stop-color="white" stop-opacity="0"/>
<stop offset="1" stop-color="#64B5F6" stop-opacity="0.6"/>
</linearGradient>
<linearGradient id="paint1_linear" x1="74.691" y1="61.4923" x2="91.027" y2="91.2737" gradientUnits="userSpaceOnUse">
<stop stop-color="#E57373"/>
<stop offset="1" stop-color="#AD1457"/>
</linearGradient>
<linearGradient id="paint2_linear" x1="26460" y1="36322.6" x2="24759.5" y2="45029.9" gradientUnits="userSpaceOnUse">
<stop stop-color="#E57373"/>
<stop offset="1" stop-color="#AD1457"/>
</linearGradient>
<linearGradient id="paint3_linear" x1="138.483" y1="72.258" x2="92.537" y2="99.8729" gradientUnits="userSpaceOnUse">
<stop stop-color="#FFF8E1"/>
<stop offset="1" stop-color="#FFCC80"/>
</linearGradient>
<linearGradient id="paint4_linear" x1="20346.9" y1="20344.7" x2="17878.8" y2="18618.1" gradientUnits="userSpaceOnUse">
<stop stop-color="#FFF8E1"/>
<stop offset="1" stop-color="#FFCC80"/>
</linearGradient>
<linearGradient id="paint5_linear" x1="78.7364" y1="40.7124" x2="53.4885" y2="51.4997" gradientUnits="userSpaceOnUse">
<stop stop-color="#FFF8E1"/>
<stop offset="1" stop-color="#FFCC80"/>
</linearGradient>
<linearGradient id="paint6_linear" x1="72.8786" y1="13.9291" x2="44.4053" y2="53.8436" gradientUnits="userSpaceOnUse">
<stop stop-color="#FFB74D"/>
<stop offset="1" stop-color="#F4511E"/>
</linearGradient>
</defs>
</svg>
