<svg width="554" height="492" viewBox="0 0 554 492" fill="none" xmlns="http://www.w3.org/2000/svg">
<path opacity="0.4" d="M502.917 49.964C386.277 -5.53999 334.826 146.239 254.396 171.212C174.036 207.747 96.5492 164.984 48.7035 201.641C-27.137 259.745 6.15026 361.394 54.7019 404.164C124.328 465.498 248.058 443.423 375.949 377.103C536.18 294.013 605.19 98.6316 502.917 49.964Z" fill="#98C3E8"/>
<path opacity="0.2" d="M115.308 110.461C119.336 120.531 107.252 136.242 89.9299 141.479C75.0252 145.985 60.5234 145.507 56.4951 135.033C52.9315 125.768 64.1488 115.698 77.0394 110.461C89.9299 105.224 111.28 100.39 115.308 110.461Z" fill="#98C3E8"/>
<path opacity="0.2" d="M247.033 89.9163C243.898 81.9083 254.941 63.2214 268.626 59.1389C280.402 55.6261 291.434 47.3482 294.567 55.6758C297.338 63.0424 288.853 79.7042 278.663 83.8053C268.473 87.9064 250.168 97.9242 247.033 89.9163Z" fill="#98C3E8"/>
<path opacity="0.2" d="M238.004 486.474C234.869 478.466 244.468 466.051 258.153 461.969C269.929 458.456 281.366 458.896 284.499 467.223C287.271 474.59 278.38 482.534 268.19 486.635C258 490.736 241.138 494.482 238.004 486.474Z" fill="#98C3E8"/>
<path opacity="0.2" d="M379.623 445.655C373.101 430.323 393.888 396.256 422.323 388.453C446.79 381.739 486.299 395.471 492.817 411.414C498.584 425.518 460.817 423.185 439.645 431.027C418.473 438.868 386.144 460.986 379.623 445.655Z" fill="#98C3E8"/>
<mask id="mask0" mask-type="alpha" maskUnits="userSpaceOnUse" x="16" y="40" width="522" height="396">
<path d="M488.7 51.2C375.447 1.18841 330.05 148.31 253.592 174.53C177.5 211.844 102.11 172.967 57.1912 209.489C-14.0101 267.381 20.5311 364.015 68.1821 403.709C136.516 460.632 254.56 435.983 375.447 368.749C526.903 284.515 588.004 95.0517 488.7 51.2Z" fill="#98C3E8"/>
</mask>
<g mask="url(#mask0)">
<rect x="-68.8521" y="-24.1636" width="648.685" height="549.044" fill="url(#paint0_linear)"/>
<path d="M12.9963 150.717C72.476 180.711 139.073 264.667 139.073 304.755C139.073 354.067 34.5174 429.645 -13.4392 472.518L395.802 498.953C381.229 433.712 344.433 288.672 366.825 256.459C395.802 214.772 513.067 224.94 578.817 232.565L596.61 47.0088C564.582 60.396 492.902 98.863 453.757 88.6955C417.523 79.2841 348.015 38.7054 318.529 12.9478" stroke="white" stroke-opacity="0.2" stroke-width="15"/>
<path d="M166.017 104.964C182.285 189.693 226.514 345.018 273.284 288.487C331.747 217.823 378.009 126.315 421.729 186.812C456.705 235.209 508.153 330.682 529.505 372.368" stroke="white" stroke-opacity="0.2" stroke-width="15"/>
<path fill-rule="evenodd" clip-rule="evenodd" d="M349.352 154.369C349.352 157.928 346.466 160.814 342.907 160.814C339.347 160.814 336.461 157.928 336.461 154.369C336.461 150.809 339.347 147.924 342.907 147.924C346.466 147.924 349.352 150.809 349.352 154.369ZM82.6787 293.748C86.2383 293.748 89.1239 290.862 89.1239 287.303C89.1239 283.743 86.2383 280.857 82.6787 280.857C79.119 280.857 76.2334 283.743 76.2334 287.303C76.2334 290.862 79.119 293.748 82.6787 293.748ZM222.863 375.925C226.423 375.925 229.309 373.039 229.309 369.48C229.309 365.92 226.423 363.034 222.863 363.034C219.304 363.034 216.418 365.92 216.418 369.48C216.418 373.039 219.304 375.925 222.863 375.925ZM443.614 280.857C447.173 280.857 450.059 277.972 450.059 274.412C450.059 270.852 447.173 267.967 443.614 267.967C440.054 267.967 437.169 270.852 437.169 274.412C437.169 277.972 440.054 280.857 443.614 280.857Z" fill="white" fill-opacity="0.6"/>
<circle cx="58.5089" cy="357.395" r="13.7245" stroke="white" stroke-opacity="0.4" stroke-width="8"/>
<circle cx="525.791" cy="134.227" r="13.7245" stroke="white" stroke-opacity="0.4" stroke-width="8"/>
<circle cx="324.376" cy="321.946" r="13.7245" stroke="white" stroke-opacity="0.4" stroke-width="8"/>
</g>
<g filter="url(#filter0_d)">
<rect x="364.659" y="97.1675" width="70.898" height="70.898" rx="10" fill="white"/>
</g>
<path d="M396.886 145.507V135.839H403.331V145.507H411.388V132.616H416.221L400.108 118.115L383.995 132.616H388.829V145.507H396.886Z" fill="#5A98D0"/>
<g filter="url(#filter1_d)">
<path d="M354.527 10H332.427C329.377 10 326.905 12.1194 326.905 14.7338V33.6796C326.905 36.294 329.377 38.4133 332.427 38.4133H354.527C357.576 38.4133 360.048 36.294 360.048 33.6796V14.7338C360.048 12.1194 357.576 10 354.527 10Z" fill="#56CCF2"/>
</g>
<path d="M351.769 23.2136H348.409L351.02 20.9604L349.884 19.9728L346.129 23.2136H344.518V21.8227L348.272 18.5819L347.128 17.6014L344.518 19.8546V16.9546H342.907V19.8546L340.296 17.6014L339.152 18.5819L342.907 21.8227V23.2136H341.295L337.541 19.9728L336.405 20.9604L339.015 23.2136H335.656V24.6045H339.015L336.405 26.8578L337.541 27.8453L341.295 24.6045H342.907V25.9954L339.152 29.2362L340.296 30.2168L342.907 27.9635V30.8636H344.518V27.9635L347.128 30.2168L348.272 29.2362L344.518 25.9954V24.6045H346.129L349.884 27.8453L351.02 26.8578L348.409 24.6045H351.769V23.2136Z" fill="white"/>
<g filter="url(#filter2_d)">
<path d="M494.6 81.6311H472.5C469.45 81.6311 466.978 83.7505 466.978 86.3649V105.311C466.978 107.925 469.45 110.044 472.5 110.044H494.6C497.649 110.044 500.121 107.925 500.121 105.311V86.3649C500.121 83.7505 497.649 81.6311 494.6 81.6311Z" fill="#F2C94C"/>
</g>
<path d="M491.148 93.4541C491.148 89.9769 487.925 87.1951 483.897 87.1951C479.869 87.1951 476.646 89.9769 476.646 93.4541C476.646 95.61 477.935 97.5572 479.869 98.67V100.409C479.869 101.313 480.513 102.078 481.48 102.356V102.495C481.48 103.677 482.527 104.581 483.897 104.581C485.267 104.581 486.314 103.677 486.314 102.495V102.356C487.281 102.078 487.925 101.313 487.925 100.409V98.67C489.859 97.5572 491.148 95.61 491.148 93.4541ZM478.257 93.4541C478.257 90.7419 480.755 88.586 483.897 88.586C487.039 88.586 489.537 90.7419 489.537 93.4541C489.537 95.8882 487.442 97.905 484.703 98.2527V96.5141L486.072 95.3318C486.394 95.0536 486.394 94.6364 486.072 94.3582C485.75 94.08 485.267 94.08 484.944 94.3582L483.897 95.2623L482.85 94.3582C482.527 94.08 482.044 94.08 481.722 94.3582C481.399 94.6364 481.399 95.0536 481.722 95.3318L483.091 96.5141V98.2527C480.352 97.905 478.257 95.8882 478.257 93.4541ZM483.897 103.19C483.414 103.19 483.091 102.912 483.091 102.495H484.703C484.703 102.912 484.38 103.19 483.897 103.19ZM486.314 100.409C486.314 100.826 485.992 101.104 485.508 101.104H482.286C481.802 101.104 481.48 100.826 481.48 100.409V99.3654C482.205 99.574 483.011 99.7131 483.897 99.7131C484.783 99.7131 485.589 99.574 486.314 99.3654V100.409Z" fill="white"/>
<g filter="url(#filter3_d)">
<path d="M317.355 81.6311H295.255C292.205 81.6311 289.733 83.7505 289.733 86.3649V105.311C289.733 107.925 292.205 110.044 295.255 110.044H317.355C320.404 110.044 322.876 107.925 322.876 105.311V86.3649C322.876 83.7505 320.404 81.6311 317.355 81.6311Z" fill="#F58A8A"/>
</g>
<g clip-path="url(#clip0)">
<path d="M311.486 92.7588H310.68V91.3679C310.68 89.4484 308.875 87.8906 306.652 87.8906C304.428 87.8906 302.624 89.4484 302.624 91.3679V92.7588H301.818C300.932 92.7588 300.207 93.3847 300.207 94.1497V101.104C300.207 101.869 300.932 102.495 301.818 102.495H311.486C312.372 102.495 313.097 101.869 313.097 101.104V94.1497C313.097 93.3847 312.372 92.7588 311.486 92.7588ZM306.652 99.0178C305.766 99.0178 305.04 98.3919 305.04 97.6269C305.04 96.8619 305.766 96.236 306.652 96.236C307.538 96.236 308.263 96.8619 308.263 97.6269C308.263 98.3919 307.538 99.0178 306.652 99.0178ZM309.149 92.7588H304.154V91.3679C304.154 90.1786 305.274 89.212 306.652 89.212C308.029 89.212 309.149 90.1786 309.149 91.3679V92.7588Z" fill="white"/>
</g>
<g filter="url(#filter4_d)">
<path d="M457.539 10H435.44C432.39 10 429.918 12.1194 429.918 14.7338V33.6796C429.918 36.294 432.39 38.4133 435.44 38.4133H457.539C460.589 38.4133 463.061 36.294 463.061 33.6796V14.7338C463.061 12.1194 460.589 10 457.539 10Z" fill="#6FCF97"/>
</g>
<path d="M451.115 20.3596H437.958V27.4579H451.115V20.3596Z" fill="white"/>
<path d="M454.662 21.7722L451.758 22.8259V25.0218L454.662 26.0755H455.715V21.7722H454.662Z" fill="white"/>
<path d="M402.84 164.037C401.94 167.553 403.159 169.58 404.118 170.079C406.022 171.07 408.147 172.311 408.147 172.311C408.147 172.311 421.383 194.986 425.219 196.608C429.695 198.502 439.925 199.486 439.925 199.486L444.401 190.534C444.401 190.534 434.171 188.296 429.695 187.337C426.679 186.691 413.39 172.311 413.39 172.311L415.948 167.835H411.152C407.635 165.277 405.73 160.009 405.73 160.009C405.73 160.009 403.454 161.636 402.84 164.037Z" fill="url(#paint1_linear)"/>
<path d="M455.278 204.723C453.667 203.112 444.402 200.56 439.97 199.486L444.402 190.624C446.147 190.624 451.25 190.221 457.695 188.61C465.752 186.596 468.571 179.345 477.836 186.998C485.248 193.121 498.112 219.896 503.618 232.518C494.96 240.77 489.21 243.45 477.836 245.811C477.165 244.469 475.178 239.93 472.6 232.518C469.377 223.253 459.306 223.253 457.695 220.03C456.084 216.808 457.292 206.737 455.278 204.723Z" fill="url(#paint2_linear)"/>
<path d="M484.282 296.165C481.381 289.72 481.328 259.105 480.253 245.006C490.078 243.075 495.266 240.587 503.618 232.115C503.618 232.115 517.314 238.561 516.508 253.465C515.702 268.37 521.761 275.895 525.37 280.858C528.593 285.289 536.247 294.688 540.275 300.999L536.247 308.653C531.816 303.953 518.844 294.393 512.077 288.914C505.309 283.436 503.08 269.713 502.006 262.327C501.335 270.115 497.978 284.402 499.589 288.914C501.201 293.426 518.522 307.042 525.37 313.89L522.953 320.738C511.271 315.232 487.182 302.61 484.282 296.165Z" fill="url(#paint3_linear)"/>
<path d="M450.444 177.33C450.766 176.041 450.31 172.228 450.847 170.885C454.714 171.53 456.889 174.242 457.695 175.316C458.501 175.182 459.656 174.807 460.112 175.719C460.515 176.525 460.112 178.136 458.903 179.344L461.723 186.998C460.387 187.866 459.573 188.158 458.098 188.61C458.903 186.595 458.501 184.984 458.098 184.178C455.197 186.434 454.069 186.327 452.861 186.193L451.652 180.956L449.638 181.359C450.041 180.687 450.122 178.619 450.444 177.33Z" fill="url(#paint4_linear)"/>
<path d="M457.695 175.316C456.084 173.06 452.189 171.422 450.444 170.885C447.221 168.468 448.833 163.231 456.486 160.814C464.14 158.397 467.363 164.843 468.974 166.454C470.585 168.065 471.391 173.302 478.642 176.525C485.893 179.747 485.49 175.719 489.921 175.719C494.352 175.719 496.366 178.539 495.561 180.956C494.755 183.373 494.352 186.192 499.186 189.415C504.02 192.638 499.589 197.069 499.186 201.903C498.783 206.737 492.338 204.32 485.49 204.32C478.642 204.32 479.85 204.32 478.642 199.889C477.433 195.458 475.419 193.846 473.002 192.638C470.585 191.429 464.946 192.235 463.737 191.026C462.77 190.06 460.112 182.836 458.903 179.344C459.44 178.539 460.434 176.686 460.112 175.719C459.79 174.752 458.366 175.048 457.695 175.316Z" fill="#F2994A"/>
<path d="M442.387 224.059L461.723 222.85C463.979 223.172 467.766 225.938 469.377 227.281C468.84 228.49 467.282 230.907 465.349 230.907C463.415 230.907 449.236 228.49 442.387 227.281H440.776V221.239L442.387 224.059Z" fill="url(#paint5_linear)"/>
<path d="M440.776 230.101V216.405H433.928V230.101H440.776Z" fill="#F2C94C"/>
<path d="M536.247 332.017C534.313 331.695 526.444 324.229 522.953 320.738L525.37 313.89C526.982 314.561 530.365 315.743 531.01 316.709C531.815 317.918 538.664 332.42 536.247 332.017Z" fill="#5A98D0"/>
<path d="M545.915 323.155C544.948 321.543 539.066 313.755 536.247 308.653L540.275 300.999C542.155 302.61 542.289 302.61 544.303 305.43C545.24 306.741 547.123 325.169 545.915 323.155Z" fill="#5A98D0"/>
<path opacity="0.2" d="M504.423 250.646L502.006 262.73C502.409 267.162 504.826 278.038 508.854 285.692C504.02 270.384 505.631 258.971 504.423 250.646Z" fill="black"/>
<path d="M157.605 431.515L156.396 427.487L162.842 426.279C165.93 427.89 171.865 431.435 170.898 432.724C170.576 433.368 161.902 432.187 157.605 431.515Z" fill="#D06262"/>
<path d="M124.976 393.649L128.601 399.692C128.333 403.854 127.473 412.018 126.184 411.374C124.895 410.729 120.813 400.363 118.933 395.261L124.976 393.649Z" fill="#D06262"/>
<path d="M103.89 357.39C99.5968 352.93 95.6953 344.524 94.2812 340.879C98.4124 338.881 107.593 334.314 111.267 332.035C114.941 329.755 121.909 324.584 124.933 322.283C126.698 323.873 131.832 327.797 138.254 330.766C154.747 338.553 164.167 348.609 167.422 357.614C170.027 364.818 159.357 375.481 153.295 379.949C149.783 373.981 147.67 371.567 143.506 365.882L144.922 359.279L136.604 356.808C137.833 358.448 141.863 363.848 148.145 372.332C159.48 386.5 163.406 410.707 163.952 421.04C161.837 421.504 156.63 422.361 152.72 422.073C152.258 417.054 145.97 405.905 139.966 396.034C138.744 397.495 137.051 399.242 136.065 399.333C131.075 397.85 129.529 391.304 129.38 388.217L133.151 385.057C132.635 384.232 132.151 383.457 131.708 382.744C125.534 372.794 109.258 362.964 103.89 357.39Z" fill="#1F3F68"/>
<path d="M126.464 321.333C114.754 330.365 90.5161 346.565 87.2405 339.099C83.1459 329.767 83.9481 329.693 81.6842 327.07C79.4202 324.446 78.8668 318.429 77.8432 316.096C77.3287 314.924 73.1808 309.794 69.865 303.48C69.865 303.48 69.7654 303.298 69.5969 302.964C67.2428 298.37 65.3835 293.2 65.6894 288.492C65.9234 281.594 71.1709 277.144 71.1709 277.144C74.2983 273.81 77.2316 273.25 78.2476 273.34L78.2664 273.353C80.7115 275.016 84.3264 277.474 85.6068 277.356C86.8904 277.238 88.7212 274.815 89.9297 273.606C96.0574 274.256 97.9287 272.687 102.718 273.34C108.625 274.146 124.573 282.469 137.061 260.313C138.301 260.603 141.097 261.706 143.103 261.521C136.255 281.663 130.213 287.932 124.573 289.906C120.245 291.421 116.835 291.843 114.141 291.816C113.647 294.443 112.99 298.762 111.895 303.167C114.146 307.288 116.526 311.074 118.395 312.771C123.25 317.178 128.733 319.611 126.464 321.333Z" fill="white"/>
<path d="M126.234 345.221L137.042 357.172L144.922 359.279L144.451 362.963C146.26 360.639 148.579 355.059 143.381 351.33C138.184 347.601 129.784 345.704 126.234 345.221Z" fill="black" fill-opacity="0.2"/>
<path d="M133.133 385.04L139.818 396.156L138.726 397.47C137.739 395.538 135.148 393.754 132.957 391.933C131.205 390.476 130.838 387.948 130.873 386.866L133.133 385.04Z" fill="black" fill-opacity="0.2"/>
<path d="M102.068 324.386C90.6298 323.173 76.7195 311.21 71.1941 305.381C83.9708 316.746 98.8176 319.83 103.521 318.184C107.283 316.867 110.167 307.063 111.683 303.013L114.743 308.252C115.284 314.136 113.507 325.599 102.068 324.386Z" fill="black" fill-opacity="0.2"/>
<path d="M97.9595 301.706C95.4234 302.169 88.8608 296.609 85.916 293.914C96.7561 301.816 96.7777 297.776 110.474 288.108C109.879 288.972 104.029 300.596 97.9595 301.706Z" fill="black" fill-opacity="0.2"/>
<path d="M114.502 290.122C113.122 289.845 111.921 289.378 110.474 288.108L111.683 285.288C111.548 284.617 111.36 283.113 111.683 282.468C112.005 281.824 113.294 281.126 113.697 280.857L113.294 282.871L115.308 280.454L118.531 283.274L118.128 286.094L115.711 287.302L114.502 290.122Z" fill="#F2994A"/>
<path d="M143.909 257.493L143.103 261.521C141.814 261.844 138.404 260.85 137.061 260.313C137.464 259.104 138.753 255.882 139.075 254.27C139.397 252.659 142.432 250.914 143.909 250.242H145.52L143.909 253.062V257.493Z" fill="#F2994A"/>
<path d="M76.2334 265.147C76.8779 266.436 78.6504 269.175 79.456 270.384C79.9931 269.31 80.7451 266.919 79.456 265.953C78.167 264.986 77.0391 263.401 76.6362 262.73C77.0391 262.461 78.0864 261.924 79.0532 261.924C78.4087 257.09 81.7387 255.345 83.4843 255.076L90.3324 254.673L90.7353 256.688C93.2865 254.271 97.9056 249.034 95.972 247.423C93.5551 245.408 86.3041 250.645 81.4702 250.645C76.6362 250.645 74.6221 253.062 73.4136 255.479C72.2051 257.896 75.4277 263.536 76.2334 265.147Z" fill="#316099"/>
<path d="M85.4987 277.635C84.2097 277.635 80.5305 275.083 78.2478 273.606C79.322 273.069 79.8591 271.028 79.8591 270.384C79.8591 269.578 80.6648 266.355 79.8591 265.953C79.0535 265.55 76.6365 263.938 76.6365 263.133C76.6365 262.488 78.2478 262.327 79.0535 262.327C78.7849 260.984 78.7312 257.896 80.6648 256.285C82.5984 254.673 87.9157 254.539 90.3327 254.673C90.467 255.211 90.9772 257.493 91.944 262.327C92.9108 267.161 90.7355 269.444 89.527 269.981L89.9298 273.606C88.9899 274.815 86.7878 277.635 85.4987 277.635Z" fill="#F2994A"/>
<path d="M162.842 426.279L162.439 421.445C159.594 422.207 157.904 422.342 154.785 422.251L156.397 427.487L162.842 426.279Z" fill="#98C3E8"/>
<path d="M128.601 399.692L133.435 398.081C131.278 395.602 130.552 394.187 129.81 391.635L124.976 393.65L128.601 399.692Z" fill="#98C3E8"/>
<rect opacity="0.8" x="150.354" y="200.292" width="214.534" height="152.512" rx="5" fill="url(#paint6_linear)"/>
<path d="M150.354 205.292C150.354 202.53 152.593 200.292 155.354 200.292H212.376V352.804H155.354C152.593 352.804 150.354 350.565 150.354 347.804V205.292Z" fill="white"/>
<circle cx="160.022" cy="209.959" r="3.22264" fill="#FA9595"/>
<circle cx="170.495" cy="209.959" r="3.22264" fill="#FDF397"/>
<circle cx="180.163" cy="209.959" r="3.22264" fill="#C1FEBB"/>
<path opacity="0.4" fill-rule="evenodd" clip-rule="evenodd" d="M157.605 285.691H204.334V291.331H157.605V285.691ZM157.605 296.97H204.333V302.61H157.605V296.97ZM189.025 309.861H157.605V315.501H189.025V309.861Z" fill="#5A98D0"/>
<path opacity="0.1" fill-rule="evenodd" clip-rule="evenodd" d="M300.206 220.433H346.935V226.072H300.206V220.433ZM300.206 231.712H346.935V237.352H300.206V231.712ZM331.627 244.603H300.206V250.242H331.627V244.603Z" fill="black"/>
<g filter="url(#filter5_d)">
<rect x="143.909" y="221.238" width="65.2584" height="40.2829" rx="5" fill="#56CCF2"/>
</g>
<path d="M163.316 248.553C163.316 248.214 163.175 247.957 162.894 247.78C162.618 247.602 162.157 247.446 161.511 247.311C160.865 247.175 160.326 247.003 159.894 246.795C158.946 246.337 158.472 245.673 158.472 244.803C158.472 244.074 158.779 243.464 159.394 242.975C160.009 242.485 160.79 242.24 161.738 242.24C162.748 242.24 163.563 242.49 164.183 242.99C164.808 243.49 165.121 244.139 165.121 244.936H163.222C163.222 244.571 163.087 244.269 162.816 244.03C162.545 243.785 162.186 243.662 161.738 243.662C161.321 243.662 160.98 243.759 160.714 243.951C160.454 244.144 160.324 244.402 160.324 244.725C160.324 245.017 160.446 245.243 160.691 245.405C160.936 245.566 161.431 245.73 162.175 245.897C162.92 246.058 163.503 246.253 163.925 246.483C164.352 246.707 164.667 246.977 164.871 247.295C165.079 247.613 165.183 247.998 165.183 248.451C165.183 249.212 164.868 249.829 164.238 250.303C163.608 250.772 162.782 251.006 161.761 251.006C161.069 251.006 160.451 250.881 159.91 250.631C159.368 250.381 158.946 250.037 158.644 249.6C158.342 249.162 158.191 248.691 158.191 248.186H160.035C160.061 248.634 160.23 248.98 160.542 249.225C160.855 249.464 161.269 249.584 161.785 249.584C162.285 249.584 162.665 249.49 162.925 249.303C163.186 249.11 163.316 248.86 163.316 248.553ZM169.663 250.85H167.764V242.397H169.663V250.85ZM167.647 240.201C167.647 239.91 167.738 239.668 167.921 239.475C168.108 239.282 168.374 239.186 168.717 239.186C169.061 239.186 169.327 239.282 169.514 239.475C169.702 239.668 169.796 239.91 169.796 240.201C169.796 240.488 169.702 240.727 169.514 240.92C169.327 241.108 169.061 241.201 168.717 241.201C168.374 241.201 168.108 241.108 167.921 240.92C167.738 240.727 167.647 240.488 167.647 240.201ZM174.916 240.342V242.397H176.408V243.803H174.916V248.522C174.916 248.845 174.978 249.079 175.103 249.225C175.234 249.365 175.463 249.436 175.791 249.436C176.01 249.436 176.231 249.41 176.455 249.358V250.826C176.023 250.946 175.606 251.006 175.205 251.006C173.747 251.006 173.017 250.201 173.017 248.592V243.803H171.627V242.397H173.017V240.342H174.916ZM182.388 251.006C181.185 251.006 180.208 250.628 179.458 249.873C178.713 249.113 178.341 248.102 178.341 246.842V246.608C178.341 245.764 178.502 245.011 178.825 244.35C179.153 243.683 179.612 243.165 180.2 242.795C180.789 242.425 181.445 242.24 182.169 242.24C183.32 242.24 184.208 242.608 184.833 243.342C185.463 244.076 185.778 245.115 185.778 246.459V247.225H180.255C180.312 247.923 180.544 248.475 180.95 248.881C181.362 249.287 181.877 249.49 182.497 249.49C183.367 249.49 184.075 249.139 184.622 248.436L185.646 249.412C185.307 249.918 184.854 250.311 184.286 250.592C183.724 250.868 183.091 251.006 182.388 251.006ZM182.161 243.764C181.64 243.764 181.219 243.946 180.896 244.311C180.578 244.675 180.375 245.183 180.286 245.834H183.903V245.694C183.862 245.058 183.692 244.579 183.396 244.256C183.099 243.928 182.687 243.764 182.161 243.764Z" fill="white"/>
<rect x="226.086" y="214.793" width="63.647" height="62.0357" rx="5" fill="#EB5757"/>
<g clip-path="url(#clip1)">
<path d="M251.062 234.935V257.493L268.786 246.214L251.062 234.935Z" fill="white"/>
</g>
<g filter="url(#filter6_d)">
<rect x="226.086" y="287.302" width="124.071" height="50.7565" rx="5" fill="#6FCF97"/>
</g>
<path d="M236.962 323.557C244.616 318.32 247.839 311.472 262.34 311.472C276.842 311.472 278.115 319.529 286.913 319.529C297.387 319.529 307.457 303.818 318.737 303.818C330.016 303.818 332.836 311.875 338.878 312.278" stroke="black" stroke-opacity="0.1" stroke-width="2" stroke-linecap="round" stroke-linejoin="round"/>
<path d="M236.56 323.96C244.213 318.723 246.227 303.416 260.729 303.416C275.231 303.416 278.518 316.709 287.316 316.709C297.79 316.709 307.055 294.956 318.334 294.956C329.613 294.956 333.239 311.875 339.281 312.278" stroke="white" stroke-width="2" stroke-linecap="round" stroke-linejoin="round"/>
<defs>
<filter id="filter0_d" x="314.659" y="47.1675" width="170.898" height="170.898" filterUnits="userSpaceOnUse" color-interpolation-filters="sRGB">
<feFlood flood-opacity="0" result="BackgroundImageFix"/>
<feColorMatrix in="SourceAlpha" type="matrix" values="0 0 0 0 0 0 0 0 0 0 0 0 0 0 0 0 0 0 127 0"/>
<feOffset/>
<feGaussianBlur stdDeviation="25"/>
<feColorMatrix type="matrix" values="0 0 0 0 0.0627451 0 0 0 0 0.439216 0 0 0 0 0.694118 0 0 0 0.25 0"/>
<feBlend mode="normal" in2="BackgroundImageFix" result="effect1_dropShadow"/>
<feBlend mode="normal" in="SourceGraphic" in2="effect1_dropShadow" result="shape"/>
</filter>
<filter id="filter1_d" x="316.905" y="0" width="63.1433" height="58.4133" filterUnits="userSpaceOnUse" color-interpolation-filters="sRGB">
<feFlood flood-opacity="0" result="BackgroundImageFix"/>
<feColorMatrix in="SourceAlpha" type="matrix" values="0 0 0 0 0 0 0 0 0 0 0 0 0 0 0 0 0 0 127 0"/>
<feOffset dx="5" dy="5"/>
<feGaussianBlur stdDeviation="7.5"/>
<feColorMatrix type="matrix" values="0 0 0 0 0 0 0 0 0 0 0 0 0 0 0 0 0 0 0.15 0"/>
<feBlend mode="normal" in2="BackgroundImageFix" result="effect1_dropShadow"/>
<feBlend mode="normal" in="SourceGraphic" in2="effect1_dropShadow" result="shape"/>
</filter>
<filter id="filter2_d" x="456.978" y="71.6311" width="63.1433" height="58.4133" filterUnits="userSpaceOnUse" color-interpolation-filters="sRGB">
<feFlood flood-opacity="0" result="BackgroundImageFix"/>
<feColorMatrix in="SourceAlpha" type="matrix" values="0 0 0 0 0 0 0 0 0 0 0 0 0 0 0 0 0 0 127 0"/>
<feOffset dx="5" dy="5"/>
<feGaussianBlur stdDeviation="7.5"/>
<feColorMatrix type="matrix" values="0 0 0 0 0 0 0 0 0 0 0 0 0 0 0 0 0 0 0.15 0"/>
<feBlend mode="normal" in2="BackgroundImageFix" result="effect1_dropShadow"/>
<feBlend mode="normal" in="SourceGraphic" in2="effect1_dropShadow" result="shape"/>
</filter>
<filter id="filter3_d" x="279.733" y="71.6311" width="63.1433" height="58.4133" filterUnits="userSpaceOnUse" color-interpolation-filters="sRGB">
<feFlood flood-opacity="0" result="BackgroundImageFix"/>
<feColorMatrix in="SourceAlpha" type="matrix" values="0 0 0 0 0 0 0 0 0 0 0 0 0 0 0 0 0 0 127 0"/>
<feOffset dx="5" dy="5"/>
<feGaussianBlur stdDeviation="7.5"/>
<feColorMatrix type="matrix" values="0 0 0 0 0 0 0 0 0 0 0 0 0 0 0 0 0 0 0.15 0"/>
<feBlend mode="normal" in2="BackgroundImageFix" result="effect1_dropShadow"/>
<feBlend mode="normal" in="SourceGraphic" in2="effect1_dropShadow" result="shape"/>
</filter>
<filter id="filter4_d" x="419.918" y="0" width="63.1433" height="58.4133" filterUnits="userSpaceOnUse" color-interpolation-filters="sRGB">
<feFlood flood-opacity="0" result="BackgroundImageFix"/>
<feColorMatrix in="SourceAlpha" type="matrix" values="0 0 0 0 0 0 0 0 0 0 0 0 0 0 0 0 0 0 127 0"/>
<feOffset dx="5" dy="5"/>
<feGaussianBlur stdDeviation="7.5"/>
<feColorMatrix type="matrix" values="0 0 0 0 0 0 0 0 0 0 0 0 0 0 0 0 0 0 0.15 0"/>
<feBlend mode="normal" in2="BackgroundImageFix" result="effect1_dropShadow"/>
<feBlend mode="normal" in="SourceGraphic" in2="effect1_dropShadow" result="shape"/>
</filter>
<filter id="filter5_d" x="138.909" y="216.238" width="85.2584" height="60.2829" filterUnits="userSpaceOnUse" color-interpolation-filters="sRGB">
<feFlood flood-opacity="0" result="BackgroundImageFix"/>
<feColorMatrix in="SourceAlpha" type="matrix" values="0 0 0 0 0 0 0 0 0 0 0 0 0 0 0 0 0 0 127 0"/>
<feOffset dx="5" dy="5"/>
<feGaussianBlur stdDeviation="5"/>
<feColorMatrix type="matrix" values="0 0 0 0 0.0627451 0 0 0 0 0.439216 0 0 0 0 0.694118 0 0 0 0.2 0"/>
<feBlend mode="normal" in2="BackgroundImageFix" result="effect1_dropShadow"/>
<feBlend mode="normal" in="SourceGraphic" in2="effect1_dropShadow" result="shape"/>
</filter>
<filter id="filter6_d" x="216.086" y="281.302" width="144.071" height="70.7565" filterUnits="userSpaceOnUse" color-interpolation-filters="sRGB">
<feFlood flood-opacity="0" result="BackgroundImageFix"/>
<feColorMatrix in="SourceAlpha" type="matrix" values="0 0 0 0 0 0 0 0 0 0 0 0 0 0 0 0 0 0 127 0"/>
<feOffset dy="4"/>
<feGaussianBlur stdDeviation="5"/>
<feColorMatrix type="matrix" values="0 0 0 0 0.435294 0 0 0 0 0.811765 0 0 0 0 0.592157 0 0 0 0.2 0"/>
<feBlend mode="normal" in2="BackgroundImageFix" result="effect1_dropShadow"/>
<feBlend mode="normal" in="SourceGraphic" in2="effect1_dropShadow" result="shape"/>
</filter>
<linearGradient id="paint0_linear" x1="302.314" y1="-60.9987" x2="271.841" y2="479.458" gradientUnits="userSpaceOnUse">
<stop stop-color="#D1ECFF"/>
<stop offset="1" stop-color="#1070B1"/>
</linearGradient>
<linearGradient id="paint1_linear" x1="450.651" y1="170.14" x2="408.942" y2="197.387" gradientUnits="userSpaceOnUse">
<stop stop-color="#FFF8E1"/>
<stop offset="1" stop-color="#FFCC80"/>
</linearGradient>
<linearGradient id="paint2_linear" x1="471.794" y1="183.567" x2="471.794" y2="245.811" gradientUnits="userSpaceOnUse">
<stop stop-color="#AF6CED"/>
<stop offset="1" stop-color="#5E199D"/>
</linearGradient>
<linearGradient id="paint3_linear" x1="510.264" y1="232.115" x2="510.264" y2="320.738" gradientUnits="userSpaceOnUse">
<stop stop-color="#EB5757"/>
<stop offset="1" stop-color="#872727"/>
</linearGradient>
<linearGradient id="paint4_linear" x1="463.527" y1="175.434" x2="448.928" y2="181.564" gradientUnits="userSpaceOnUse">
<stop stop-color="#FFF8E1"/>
<stop offset="1" stop-color="#FFCC80"/>
</linearGradient>
<linearGradient id="paint5_linear" x1="473.646" y1="223.72" x2="464.235" y2="240.864" gradientUnits="userSpaceOnUse">
<stop stop-color="#FFF8E1"/>
<stop offset="1" stop-color="#FFCC80"/>
</linearGradient>
<linearGradient id="paint6_linear" x1="155.505" y1="256.007" x2="401.633" y2="282.996" gradientUnits="userSpaceOnUse">
<stop offset="0.127122" stop-color="white"/>
<stop offset="0.972261" stop-color="white" stop-opacity="0.8"/>
</linearGradient>
<clipPath id="clip0">
<rect width="19.3358" height="16.6908" fill="white" transform="translate(296.984 87.1951)"/>
</clipPath>
<clipPath id="clip1">
<rect width="38.6716" height="38.6716" fill="white" transform="translate(238.171 226.878)"/>
</clipPath>
</defs>
</svg>
