<svg width="34" height="38" viewBox="0 0 34 38" fill="none" xmlns="http://www.w3.org/2000/svg">
<path d="M33.1039 11.875C33.5967 11.875 34 11.4742 34 10.9844V8.01562C34 7.52578 33.5967 7.125 33.1039 7.125H31.6103V3.5625C31.6103 1.5957 30.0047 0 28.0257 0H4.1282C2.14919 0 0.543579 1.5957 0.543579 3.5625V34.4375C0.543579 36.4043 2.14919 38 4.1282 38H28.0257C30.0047 38 31.6103 36.4043 31.6103 34.4375V30.875H33.1039C33.5967 30.875 34 30.4742 34 29.9844V27.0156C34 26.5258 33.5967 26.125 33.1039 26.125H31.6103V21.375H33.1039C33.5967 21.375 34 20.9742 34 20.4844V17.5156C34 17.0258 33.5967 16.625 33.1039 16.625H31.6103V11.875H33.1039ZM16.0769 9.5C18.7131 9.5 20.8564 11.6301 20.8564 14.25C20.8564 16.8699 18.7131 19 16.0769 19C13.4407 19 11.2974 16.8699 11.2974 14.25C11.2974 11.6301 13.4407 9.5 16.0769 9.5ZM24.441 27.075C24.441 27.8617 23.6942 28.5 22.7682 28.5H9.38564C8.45961 28.5 7.71282 27.8617 7.71282 27.075V25.65C7.71282 23.2898 9.96067 21.375 12.7313 21.375H13.1047C14.0232 21.7535 15.0239 21.9688 16.0769 21.9688C17.1299 21.9688 18.1381 21.7535 19.0492 21.375H19.4226C22.1932 21.375 24.441 23.2898 24.441 25.65V27.075Z" fill="#316099"/>
</svg>
