<svg width="1140" height="480" viewBox="0 0 1140 480" fill="none" xmlns="http://www.w3.org/2000/svg">
<mask id="mask0" mask-type="alpha" maskUnits="userSpaceOnUse" x="0" y="0" width="1140" height="480">
<rect width="1140" height="480" rx="10" fill="#E8E8E8"/>
</mask>
<g mask="url(#mask0)">
<rect x="-40.0215" y="-136.978" width="1218.83" height="734.388"/>
<rect width="1140" height="480" fill="url(#paint0_linear)"/>
<g opacity="0.6">
<path d="M54.5747 447.77V433.957H64.2768V447.77H76.4045V429.353H83.6811L59.4257 408.633L35.1704 429.353H42.447V447.77H54.5747Z" fill="white"/>
<path d="M144.245 429.353C144.245 473.623 106.395 509.73 59.4256 509.73C12.4567 509.73 -25.3936 473.623 -25.3936 429.353C-25.3936 385.083 12.4567 348.975 59.4256 348.975C106.395 348.975 144.245 385.083 144.245 429.353Z" stroke="white" stroke-width="5"/>
<path d="M125.128 119.712C125.128 140.09 107.707 156.698 86.1062 156.698C64.5056 156.698 47.085 140.09 47.085 119.712C47.085 99.334 64.5056 82.7264 86.1062 82.7264C107.707 82.7264 125.128 99.334 125.128 119.712Z" stroke="white" stroke-width="2"/>
<path d="M433.17 219.856C433.17 240.234 415.75 256.842 394.149 256.842C372.549 256.842 355.128 240.234 355.128 219.856C355.128 199.478 372.549 182.87 394.149 182.87C415.75 182.87 433.17 199.478 433.17 219.856Z" stroke="white" stroke-width="2"/>
<path d="M217.298 269.353C217.298 289.731 199.877 306.338 178.277 306.338C156.676 306.338 139.255 289.731 139.255 269.353C139.255 248.975 156.676 232.367 178.277 232.367C199.877 232.367 217.298 248.975 217.298 269.353Z" stroke="white" stroke-width="2"/>
<path d="M405.276 413.237C405.276 433.615 387.856 450.223 366.255 450.223C344.654 450.223 327.234 433.615 327.234 413.237C327.234 392.859 344.654 376.252 366.255 376.252C387.856 376.252 405.276 392.859 405.276 413.237Z" stroke="white" stroke-width="2"/>
<path d="M67.915 349.928L82.4682 156.547" stroke="white" stroke-width="2" stroke-linecap="round"/>
<path d="M144.319 436.259L328.66 423.597" stroke="white" stroke-width="2" stroke-linecap="round"/>
<path d="M107.936 362.59L162.511 302.734" stroke="white" stroke-width="2" stroke-linecap="round"/>
<path d="M137.042 397.698L367.468 248.633" stroke="white" stroke-width="2" stroke-linecap="round"/>
</g>
</g>
<defs>
<linearGradient id="paint0_linear" x1="41.2118" y1="310.755" x2="1116.78" y2="310.16" gradientUnits="userSpaceOnUse">
<stop stop-color="#1F3F68"/>
<stop offset="0.998233" stop-color="#1F3F68" stop-opacity="0.37"/>
</linearGradient>
</defs>
</svg>
